<?xml version="1.0" encoding="UTF-8"?>
<svg width="512" height="512" fill="#fff" version="1.1" viewBox="0 0 135.47 135.47"
  xmlns="http://www.w3.org/2000/svg" xmlns:cc="http://creativecommons.org/ns#">
  <rect width="100%" height="100%" fill="#09f"/>
  <g transform="translate(0 -161.53)">
    <g transform="matrix(1.0344 0 0 1.0869 -2.0685 -19.991)">
    <rect x="9.9294" y="224.55" width="5.9939" height="23.366" rx="2.997" ry="2.997" />
    <rect x="19.849" y="215.2" width="5.9939" height="41.989" rx="2.997" ry="2.819" />
    <rect x="29.768" y="211.49" width="5.9939" height="49.213" rx="2.997" ry="2.997" />
    <rect x="39.688" y="202.01" width="5.9939" height="58.69" rx="2.997" ry="3.0381" />
    <rect x="49.607" y="198.3" width="5.9939" height="62.402" rx="2.997" ry="2.997" />
    <rect x="59.526" y="197.97" width="5.9939" height="62.733" rx="2.997" ry="2.997" />
    <rect x="69.446" y="201.81" width="5.9939" height="58.889" rx="2.997" ry="2.997" />
    <rect x="79.365" y="211.29" width="5.9939" height="49.412" rx="2.997" ry="2.997" />
    <rect x="89.285" y="211.75" width="5.9939" height="48.948" rx="2.997" ry="2.997" />
    <rect x="99.204" y="216.53" width="5.9939" height="44.176" rx="2.997" ry="2.997" />
    <rect x="109.12" y="223.55" width="5.9939" height="36.886" rx="2.997" ry="2.997" />
    <rect x="119.04" y="230.78" width="5.9939" height="22.372" rx="2.997" ry="2.997" />
    </g>
  </g>
</svg>
